<?xml version="1.0" standalone="no"?>
<!DOCTYPE svg PUBLIC "-//W3C//DTD SVG 20010904//EN"
 "http://www.w3.org/TR/2001/REC-SVG-20010904/DTD/svg10.dtd">
<svg version="1.0" xmlns="http://www.w3.org/2000/svg"
 width="880.000000pt" height="880.000000pt" viewBox="0 0 880.000000 880.000000"
 preserveAspectRatio="xMidYMid meet">
<metadata>
Created by potrace 1.14, written by Peter Selinger 2001-2017
</metadata>
<g transform="translate(0.000000,880.000000) scale(0.100000,-0.100000)"
fill="#000000" stroke="none">
<path d="M3760 8739 c-88 -78 -220 -212 -285 -290 -380 -455 -464 -938 -242
-1374 23 -44 86 -154 142 -245 135 -221 157 -260 199 -362 51 -123 77 -244 79
-368 l2 -105 -125 -1 c-121 -2 -344 -12 -405 -18 -16 -2 -61 -6 -100 -10 -38
-4 -81 -9 -95 -11 -14 -2 -50 -6 -80 -9 -30 -3 -64 -8 -75 -10 -17 -3 -85 -14
-135 -21 -8 -1 -35 -5 -60 -9 -25 -4 -58 -10 -74 -12 -16 -3 -32 -7 -35 -9 -4
-2 -27 -6 -51 -10 -54 -8 -192 -38 -275 -60 -33 -9 -67 -18 -75 -21 -8 -2 -40
-10 -70 -17 -30 -8 -72 -21 -92 -30 -21 -9 -38 -14 -38 -12 0 2 -17 -3 -37
-11 -20 -9 -45 -17 -55 -19 -9 -2 -32 -10 -50 -19 -18 -8 -69 -29 -113 -47
-44 -18 -107 -48 -140 -66 -33 -19 -70 -39 -82 -45 -13 -6 -23 -15 -23 -20 0
-4 -6 -8 -14 -8 -7 0 -34 -20 -60 -44 -25 -25 -46 -43 -46 -40 0 2 -8 -4 -18
-13 -11 -10 -17 -21 -15 -25 2 -5 0 -8 -6 -8 -16 0 -69 -121 -74 -169 -5 -51
11 -130 38 -181 23 -45 119 -138 150 -146 14 -3 25 -10 25 -15 0 -5 9 -9 19
-9 11 0 21 -4 23 -8 2 -6 156 -73 178 -78 3 0 16 -5 30 -11 60 -26 279 -112
320 -126 25 -9 106 -39 180 -67 74 -28 140 -52 145 -54 6 -2 19 -6 30 -10 11
-5 32 -12 47 -18 15 -6 30 -10 33 -9 3 1 19 -6 35 -14 17 -9 30 -13 30 -10 0
3 11 -2 25 -11 14 -9 25 -13 25 -9 0 4 7 2 15 -5 8 -7 15 -10 15 -7 0 3 30 -6
68 -20 37 -13 74 -26 82 -28 8 -2 17 -4 20 -5 3 -1 8 -2 13 -1 4 0 7 -4 7 -9
0 -5 3 -9 8 -9 4 1 9 0 12 -1 3 -1 13 -3 23 -6 30 -7 41 -11 59 -18 9 -4 22
-8 30 -10 7 -1 19 -5 26 -9 6 -5 12 -6 12 -3 0 3 17 -2 37 -10 20 -9 44 -18
52 -20 15 -3 73 -18 114 -29 76 -21 131 -27 242 -30 61 -1 128 2 150 7 22 5
51 11 65 13 42 6 94 15 112 21 9 3 25 6 35 8 10 2 38 9 63 16 25 7 53 14 62
16 10 2 27 6 38 9 11 3 29 7 40 10 49 12 67 16 90 21 14 3 50 12 80 20 30 9
62 17 70 19 8 2 35 8 60 15 25 7 55 14 67 16 12 2 34 9 48 14 14 5 25 7 25 4
0 -4 7 -1 15 6 8 7 15 10 15 7 0 -3 27 3 60 13 33 10 60 16 60 14 0 -3 8 0 18
5 11 6 30 12 43 15 13 2 83 21 154 41 72 20 140 38 152 41 12 2 33 8 45 13 13
5 25 9 28 9 3 0 12 3 20 6 29 9 165 47 189 52 13 3 31 9 40 13 9 5 18 9 21 9
3 0 25 6 50 13 25 7 50 13 55 15 6 1 29 9 53 18 23 8 46 15 50 16 4 0 32 8 62
17 30 9 57 17 60 18 3 1 32 10 65 20 33 11 62 20 65 20 3 1 19 8 35 15 17 7
33 13 38 12 4 -1 7 3 7 8 0 6 9 10 20 10 11 0 20 4 20 8 0 4 15 16 33 26 53
31 135 127 159 186 18 43 22 74 22 140 -1 47 -3 92 -6 100 -8 27 -40 85 -52
92 -6 4 -7 8 -3 8 4 0 -4 11 -19 25 -15 14 -24 25 -21 25 3 0 -5 11 -19 25
-14 14 -29 25 -34 25 -6 0 -10 4 -10 9 0 8 -132 101 -144 101 -4 0 -23 11 -44
24 -20 12 -39 23 -42 24 -3 0 -32 13 -65 27 -107 48 -418 145 -514 161 -14 3
-33 7 -41 10 -8 4 -24 8 -35 9 -11 2 -67 12 -125 24 -58 11 -121 22 -140 25
-48 5 -130 17 -160 22 -14 2 -50 6 -80 9 -30 3 -64 7 -75 10 -17 3 -127 14
-205 19 -21 2 -25 7 -22 32 1 16 4 83 7 149 8 244 -38 380 -242 713 -195 319
-253 472 -283 742 -8 74 -5 350 5 443 20 192 133 588 202 710 7 13 -1 7 -37
-24z m-112 -2889 l-3 -25 -130 -1 c-143 -1 -381 -12 -405 -19 -8 -2 -48 -7
-89 -10 -41 -4 -86 -8 -100 -10 -74 -9 -119 -16 -146 -22 -16 -4 -33 -6 -36
-5 -4 1 -58 -8 -120 -19 -63 -11 -127 -22 -144 -25 -16 -3 -37 -7 -45 -10 -8
-3 -26 -8 -40 -10 -14 -3 -70 -18 -125 -35 -55 -16 -109 -32 -120 -34 -11 -3
-31 -9 -45 -15 -14 -5 -38 -15 -55 -21 -16 -7 -32 -13 -35 -13 -3 -1 -41 -16
-85 -35 -110 -46 -230 -112 -247 -136 -4 -5 -8 -6 -8 -1 0 6 -8 1 -19 -10 -10
-10 -33 -30 -50 -44 -17 -14 -31 -33 -31 -43 0 -17 4 -17 43 7 56 36 230 121
240 118 4 -1 7 3 7 8 0 5 3 9 8 9 17 -3 71 14 67 21 -3 4 1 7 8 6 6 0 48 11
92 26 96 32 248 78 272 83 10 2 18 4 18 5 0 2 15 5 65 15 50 10 65 13 65 15 0
2 9 3 77 13 21 3 63 11 95 16 32 6 74 13 93 17 55 9 72 12 125 19 28 3 61 8
75 10 23 4 75 10 175 20 87 9 257 17 390 19 l140 1 -3 -30 c-6 -51 -72 -246
-118 -342 l-43 -93 -58 -1 c-66 -1 -92 -3 -253 -14 -63 -4 -132 -8 -152 -9
-21 0 -38 -3 -38 -6 0 -3 -17 -5 -38 -6 -36 -1 -143 -12 -179 -18 -10 -2 -38
-7 -63 -10 -25 -3 -56 -8 -70 -11 -209 -36 -244 -43 -290 -55 -19 -5 -46 -11
-60 -14 -14 -2 -79 -21 -145 -40 -66 -20 -127 -38 -136 -40 -67 -17 -241 -96
-212 -96 6 0 33 -10 60 -22 26 -12 50 -22 53 -23 3 -1 21 -8 40 -16 19 -9 47
-19 62 -22 15 -4 40 -12 55 -19 29 -11 34 -13 68 -22 19 -5 85 -23 115 -31 28
-7 155 -37 170 -40 19 -3 93 -18 100 -20 3 0 27 -4 53 -9 27 -4 59 -9 70 -12
12 -2 42 -6 67 -9 25 -3 59 -7 75 -10 60 -9 151 -18 192 -19 24 -1 43 -3 43
-6 0 -22 880 -18 1090 5 19 2 62 6 95 10 33 3 71 8 84 10 14 2 51 7 84 10 32
4 68 9 80 11 12 3 36 7 52 9 17 3 41 7 55 10 14 3 52 10 85 15 33 5 87 17 120
26 33 8 69 17 80 19 11 2 67 17 125 34 58 18 112 33 120 36 8 2 16 4 18 5 1 2
6 3 10 4 28 4 230 91 226 98 -12 20 -241 103 -384 140 -41 10 -84 21 -95 24
-11 3 -41 10 -67 14 -27 5 -51 11 -56 14 -4 2 -26 7 -48 10 -22 4 -51 9 -64
11 -26 5 -61 11 -127 20 -21 3 -64 10 -97 15 -32 5 -61 9 -65 8 -3 0 -8 0 -11
2 -3 1 -25 3 -50 5 -25 1 -63 6 -85 9 -42 6 -200 16 -325 21 -41 2 -85 4 -98
4 -21 1 -18 7 31 69 30 37 80 105 112 152 32 47 65 88 74 92 9 4 10 7 4 7 -8
1 -1 24 19 66 l33 66 65 -6 c36 -3 76 -7 90 -10 34 -6 168 -23 235 -29 17 -2
37 -6 45 -9 8 -3 32 -9 53 -12 21 -3 48 -10 59 -16 19 -10 19 -11 1 -29 -10
-9 -20 -16 -23 -15 -3 2 -30 -2 -60 -9 -51 -12 -128 -13 -388 -5 -45 1 -85 -1
-89 -5 -3 -3 0 -6 8 -7 8 0 23 -2 34 -5 11 -2 36 -6 55 -9 19 -3 42 -7 50 -8
8 -2 38 -8 65 -12 28 -5 52 -10 55 -10 3 -1 23 -5 45 -10 22 -4 49 -9 60 -12
11 -2 43 -8 70 -13 105 -20 98 -18 190 -40 28 -7 59 -14 70 -15 11 -2 22 -4
25 -6 3 -1 10 -3 15 -4 6 -1 19 -5 30 -9 11 -5 32 -12 47 -18 15 -5 32 -7 37
-3 6 3 11 1 11 -6 0 -6 8 -9 20 -6 10 3 20 2 22 -2 4 -8 269 -96 286 -95 6 1
12 -2 12 -7 0 -5 9 -9 19 -9 11 0 21 -4 23 -10 2 -5 12 -11 23 -13 11 -1 25
-5 30 -8 17 -10 45 -19 45 -14 0 6 -114 60 -122 57 -5 -1 -8 2 -8 7 0 5 -8 11
-17 13 -10 3 -22 6 -28 8 -5 1 -21 10 -35 19 -21 15 -113 61 -130 66 -18 6
-49 19 -72 31 -16 8 -28 12 -28 8 0 -3 -7 -1 -15 6 -23 19 -9 29 28 20 17 -5
61 -16 97 -25 114 -29 213 -57 296 -86 45 -15 85 -25 88 -22 3 4 6 1 6 -5 0
-7 3 -11 8 -10 4 1 26 -8 50 -20 23 -12 42 -21 42 -19 0 3 -32 26 -71 52 -118
79 -462 227 -512 219 -9 -1 -15 2 -11 7 3 5 -3 9 -13 10 -16 0 -26 2 -65 12
-65 16 -80 38 -20 29 20 -3 49 -6 65 -6 15 -1 27 -4 27 -7 0 -3 6 -6 13 -6 25
-1 85 -13 109 -22 14 -5 40 -12 59 -15 19 -3 58 -12 87 -21 29 -9 58 -13 64
-9 6 4 8 3 4 -4 -6 -10 31 -26 79 -35 11 -2 28 -7 38 -12 28 -12 31 2 6 27
-35 34 -154 93 -261 129 -51 17 -97 32 -103 34 -5 1 -30 8 -55 15 -25 7 -49
14 -55 16 -29 6 -164 34 -190 38 -108 20 -214 39 -240 42 -16 2 -61 8 -100 13
-38 5 -101 12 -140 16 -97 8 -169 16 -171 18 -1 1 2 12 7 24 7 20 14 22 56 18
61 -6 155 -15 213 -20 63 -6 131 -14 160 -20 14 -3 41 -8 60 -10 19 -2 51 -7
70 -10 19 -3 49 -8 67 -10 18 -2 37 -6 42 -9 5 -3 26 -8 47 -11 22 -3 49 -7
62 -10 12 -3 32 -7 45 -10 36 -8 71 -15 92 -20 11 -2 54 -13 95 -25 41 -11 80
-22 85 -23 57 -15 219 -75 253 -94 23 -13 42 -21 42 -18 0 4 7 -1 16 -9 8 -9
19 -14 24 -11 5 3 10 1 12 -3 1 -4 26 -23 53 -42 138 -94 196 -209 154 -307
-10 -23 -15 -43 -12 -43 11 0 -130 -133 -157 -149 -14 -8 -42 -24 -62 -35 -21
-11 -38 -24 -38 -28 0 -5 -5 -6 -11 -3 -5 4 -19 -1 -30 -11 -10 -9 -19 -14
-19 -11 0 3 -24 -5 -54 -18 -30 -13 -57 -21 -60 -18 -3 4 -6 1 -6 -6 0 -7 -4
-9 -10 -6 -5 3 -10 1 -10 -5 0 -6 -5 -8 -10 -5 -6 4 -18 1 -27 -7 -9 -7 -19
-12 -22 -12 -7 2 -7 2 -78 -21 -28 -9 -64 -18 -80 -21 -15 -2 -35 -7 -43 -11
-8 -3 -19 -7 -25 -8 -5 -2 -30 -8 -55 -15 -25 -7 -53 -14 -62 -16 -10 -2 -27
-6 -38 -9 -48 -12 -67 -16 -90 -21 -14 -3 -41 -9 -60 -14 -35 -9 -67 -16 -129
-26 -18 -3 -42 -8 -52 -10 -11 -2 -27 -6 -38 -8 -10 -2 -34 -7 -52 -9 -70 -11
-134 -21 -139 -22 -3 -1 -32 -5 -65 -9 -33 -5 -69 -10 -80 -12 -11 -3 -47 -7
-80 -10 -33 -3 -76 -7 -95 -9 -111 -12 -301 -19 -485 -19 -240 1 -386 8 -555
28 -24 3 -65 8 -90 11 -25 3 -56 7 -70 10 -14 3 -38 7 -55 10 -16 2 -41 7 -55
10 -14 3 -36 7 -50 9 -14 2 -43 9 -65 14 -22 6 -53 13 -70 15 -16 3 -50 10
-75 17 -25 7 -52 13 -61 15 -9 2 -49 13 -90 25 -41 12 -78 23 -84 25 -5 1 -17
5 -25 8 -39 15 -96 31 -102 29 -5 -1 -8 3 -8 10 0 6 -3 9 -6 6 -7 -7 -99 25
-174 60 -30 14 -61 27 -69 28 -8 1 -18 9 -22 16 -5 7 -9 9 -9 5 0 -4 -20 6
-44 23 -25 16 -49 30 -55 30 -6 0 -11 5 -11 10 0 6 -6 10 -12 10 -21 0 -105
85 -138 139 -36 58 -42 129 -16 180 9 17 17 34 18 38 1 5 12 16 25 26 13 10
20 24 16 30 -3 7 -3 9 2 5 4 -4 24 6 44 23 51 42 49 41 116 74 33 17 62 33 65
36 6 8 53 24 63 21 4 -1 7 2 7 7 0 5 11 12 25 15 13 3 37 11 52 18 15 6 37 13
47 15 11 2 25 8 33 14 7 6 13 8 13 4 0 -4 7 -2 15 5 8 7 15 10 15 6 0 -3 12
-1 28 5 15 6 43 16 62 21 19 5 51 14 70 19 19 5 46 12 59 15 12 2 53 12 90 20
101 24 105 25 126 28 42 7 91 17 105 21 8 2 33 7 55 10 23 3 50 7 61 9 12 2
45 7 75 11 30 3 61 8 69 10 8 3 40 7 70 11 30 3 71 8 90 10 19 2 67 6 105 9
39 3 81 8 95 10 14 3 81 8 150 11 69 3 126 7 127 8 1 0 54 1 118 1 l116 1 -3
-26z m-1138 -1306 c39 -9 61 -13 100 -19 20 -3 47 -8 60 -11 14 -3 41 -7 60
-9 19 -2 35 -4 35 -5 0 -3 81 -16 150 -25 204 -24 205 -24 440 -28 194 -3 258
-1 450 18 39 4 88 9 110 11 22 2 58 6 80 9 22 3 63 8 90 11 71 8 100 12 100
14 0 1 14 3 30 5 17 2 47 6 68 8 20 3 37 1 37 -4 0 -8 -76 -35 -129 -45 -14
-3 -29 -8 -35 -11 -6 -4 -20 -8 -31 -9 -12 -1 -39 -7 -61 -13 -21 -6 -42 -11
-46 -11 -4 0 -26 -7 -48 -15 -22 -8 -40 -12 -40 -10 0 2 -18 -2 -40 -10 -22
-8 -40 -12 -40 -8 0 3 -6 0 -13 -6 -8 -6 -16 -8 -19 -5 -3 3 -22 -1 -41 -10
-19 -8 -37 -12 -40 -10 -2 3 -24 0 -48 -5 -24 -5 -57 -12 -74 -15 -16 -3 -41
-8 -55 -11 -167 -35 -278 -37 -430 -11 -65 12 -210 51 -265 73 -22 8 -47 16
-56 18 -8 2 -32 10 -54 19 -21 9 -52 19 -69 22 -17 3 -34 10 -38 17 -4 7 -8 8
-8 4 0 -4 -9 -3 -21 3 -11 6 -28 13 -37 15 -50 12 -172 58 -172 66 0 8 45 5
100 -7z"/>
<path d="M2296 5471 c-4 -5 3 -7 14 -4 23 6 26 13 6 13 -8 0 -17 -4 -20 -9z"/>
<path d="M2195 5452 c-33 -7 -78 -17 -100 -23 -22 -5 -51 -12 -65 -14 -24 -5
-44 -12 -105 -36 -16 -7 -32 -13 -35 -14 -56 -19 -170 -76 -170 -86 0 -5 -7
-6 -15 -3 -8 4 -15 1 -15 -5 0 -6 -5 -11 -10 -11 -6 0 -33 -17 -60 -37 -48
-36 -66 -73 -35 -73 8 0 15 5 15 12 0 6 3 9 6 5 4 -3 12 -1 20 6 34 31 49 42
51 39 5 -4 108 50 114 60 3 5 9 9 13 8 8 -2 149 51 156 59 3 3 12 7 20 9 8 1
24 7 35 11 11 5 54 22 95 37 41 15 80 31 86 35 6 5 14 6 17 2 4 -3 7 -2 7 3 0
5 10 10 21 11 24 2 49 20 27 19 -7 0 -40 -6 -73 -14z"/>
<path d="M4023 5415 c9 -10 197 -51 273 -59 11 -1 24 -5 30 -8 5 -3 25 -8 44
-12 19 -3 46 -8 60 -11 14 -3 36 -8 50 -10 102 -16 533 -125 590 -148 58 -24
80 -29 80 -18 0 10 -38 27 -52 23 -5 -1 -8 3 -8 8 0 6 -5 10 -11 10 -5 0 -34
11 -63 24 -67 31 -284 103 -334 111 -20 4 -48 11 -62 15 -14 5 -37 12 -52 15
-16 3 -38 7 -50 10 -13 2 -39 7 -58 9 -19 3 -45 7 -57 10 -41 9 -138 17 -251
22 -63 2 -119 7 -125 11 -7 3 -8 2 -4 -2z"/>
<path d="M2308 5333 c7 -3 16 -2 19 1 4 3 -2 6 -13 5 -11 0 -14 -3 -6 -6z"/>
<path d="M2240 5321 c-8 -4 -63 -18 -122 -31 -60 -13 -108 -27 -108 -32 0 -5
-4 -7 -8 -4 -5 3 -20 -1 -35 -9 -15 -8 -27 -12 -27 -10 0 8 -135 -58 -142 -69
-4 -6 -8 -7 -8 -3 0 4 -20 -6 -45 -23 -47 -32 -60 -62 -26 -55 29 5 61 24 61
36 0 6 5 7 10 4 6 -4 18 -1 26 6 9 7 21 14 28 15 7 1 39 14 72 30 32 15 62 29
67 30 4 1 10 3 15 4 4 1 10 2 15 1 4 0 7 4 7 9 0 6 3 9 8 8 8 -3 104 33 112
41 3 4 12 8 20 10 29 6 35 8 68 21 17 6 32 16 32 21 0 11 -1 11 -20 0z"/>
<path d="M5187 5129 c7 -7 15 -10 18 -7 3 3 -2 9 -12 12 -14 6 -15 5 -6 -5z"/>
<path d="M6525 5169 c-117 -14 -141 -19 -195 -34 -30 -9 -65 -18 -77 -21 -12
-2 -35 -9 -50 -16 -16 -6 -34 -12 -42 -14 -24 -5 -43 -31 -46 -63 -3 -38 4
-44 36 -27 13 7 29 14 34 15 6 2 21 8 35 13 51 19 240 63 321 73 30 4 65 9 79
11 36 6 270 5 300 -1 14 -2 36 -6 50 -9 14 -2 37 -9 53 -15 46 -18 30 -3 -20
19 -134 60 -327 87 -478 69z"/>
<path d="M6648 5055 c-2 -2 -28 -6 -58 -9 -70 -8 -122 -17 -180 -31 -14 -3
-36 -8 -49 -11 -13 -3 -32 -9 -41 -14 -10 -5 -20 -7 -23 -4 -3 3 -19 -2 -36
-10 -17 -9 -32 -16 -33 -16 -4 2 -40 -10 -68 -23 -14 -6 -28 -10 -32 -9 -8 2
-9 1 -12 -65 -2 -42 -2 -43 20 -29 24 17 140 65 167 71 9 2 21 6 25 9 5 3 19
7 33 10 13 3 35 8 49 11 14 3 39 8 55 11 17 3 41 8 55 11 44 9 200 15 227 8
32 -8 23 -17 -19 -21 -88 -8 -262 -50 -346 -83 -59 -24 -155 -75 -181 -97 -68
-59 -89 -84 -86 -100 2 -11 4 -35 4 -54 2 -43 17 -71 29 -53 5 8 39 15 84 17
42 3 111 8 152 11 67 6 75 5 70 -9 -3 -9 -12 -16 -20 -16 -8 0 -14 -5 -14 -11
0 -5 -4 -7 -10 -4 -5 3 -10 3 -10 -2 0 -4 -12 -14 -27 -20 -16 -7 -40 -24 -55
-38 -15 -14 -29 -24 -32 -23 -6 4 -95 -89 -90 -95 3 -2 -7 -12 -22 -21 -14
-10 -23 -20 -20 -23 3 -3 -5 -14 -17 -25 -12 -11 -15 -16 -7 -12 13 7 13 6 0
-10 -15 -19 -22 -179 -8 -169 5 2 8 10 8 17 0 8 7 19 15 26 8 7 13 16 10 20
-3 4 2 13 10 20 8 7 15 19 15 26 0 8 4 14 8 14 4 0 15 13 24 28 23 39 124 139
148 147 11 4 20 11 20 16 0 6 5 7 10 4 6 -3 10 -3 10 2 0 6 89 54 110 58 3 1
30 9 61 18 31 10 71 20 90 22 19 3 45 7 59 11 42 10 340 13 363 4 21 -8 57
-21 67 -25 35 -12 58 -26 64 -40 3 -9 10 -14 14 -11 5 3 15 -4 23 -15 8 -12
22 -30 32 -42 10 -11 20 -31 23 -44 4 -13 9 -23 13 -23 4 0 12 -14 19 -32 21
-56 -3 -56 -60 2 -51 51 -53 52 -59 29 -3 -13 -2 -35 2 -49 15 -49 20 -97 26
-295 8 -265 7 -892 -1 -980 -12 -120 -14 -139 -21 -175 -4 -19 -9 -46 -10 -60
-2 -14 -4 -25 -5 -25 -1 0 -4 -11 -7 -25 -7 -38 -11 -55 -13 -57 -2 -2 -3 -7
-4 -12 0 -5 -4 -12 -8 -16 -4 -4 -4 -13 -1 -21 3 -8 0 -14 -6 -14 -7 0 -11 -6
-10 -12 3 -13 -5 -30 -64 -156 -28 -62 -92 -140 -103 -129 -7 6 36 90 49 95 4
2 5 8 1 13 -3 5 0 9 6 9 6 0 9 4 6 9 -4 5 -2 11 4 13 5 1 11 12 13 23 2 11 9
30 15 43 7 12 10 22 6 22 -3 0 -2 6 4 13 5 6 13 29 16 51 4 21 8 42 11 46 13
22 18 208 19 805 2 653 -1 748 -28 820 -5 11 -12 32 -18 48 -6 15 -14 27 -19
27 -4 0 -10 9 -14 19 -3 11 -12 22 -21 25 -12 4 -12 2 -4 -14 6 -11 8 -20 5
-20 -3 0 -1 -9 5 -20 6 -11 14 -42 17 -68 8 -65 8 -1400 0 -1487 -6 -67 -10
-88 -23 -145 -3 -14 -6 -30 -7 -35 -1 -6 -12 -29 -24 -52 -12 -22 -19 -44 -16
-47 4 -3 1 -6 -5 -6 -7 0 -12 -5 -12 -10 0 -11 -39 -70 -53 -81 -4 -3 -18 -20
-32 -39 -14 -19 -25 -30 -25 -25 0 4 -10 -3 -23 -16 -48 -50 -134 -89 -252
-116 -11 -2 -58 -6 -104 -7 -145 -6 -251 32 -337 121 l-41 43 3 -110 c3 -117
9 -174 22 -195 23 -41 182 -142 257 -165 22 -6 47 -14 55 -17 8 -3 22 -7 30
-8 8 -1 51 -8 95 -15 44 -7 119 -13 167 -14 47 0 90 -4 94 -8 4 -5 0 -8 -9 -8
-8 0 -17 -5 -19 -11 -2 -5 -12 -12 -23 -14 -11 -2 -20 -4 -20 -5 0 -1 -11 -4
-25 -7 -41 -8 -55 -11 -55 -13 0 -2 -56 -4 -125 -5 -137 -3 -271 18 -358 57
-26 12 -51 20 -55 20 -4 -1 -10 5 -13 13 -3 8 -10 13 -14 10 -11 -7 0 -46 19
-69 19 -23 131 -77 143 -70 4 3 8 0 8 -7 0 -7 3 -10 6 -6 3 3 18 1 33 -5 14
-6 37 -12 51 -13 14 -2 25 -4 25 -5 0 -11 274 -17 345 -8 71 10 145 28 202 50
29 11 63 22 76 25 12 3 22 9 22 13 0 5 14 11 30 15 17 4 30 11 30 16 0 5 4 9
9 9 14 0 121 72 121 81 0 5 5 9 11 9 18 0 179 170 179 189 0 5 7 12 16 15 8 3
13 10 9 15 -3 6 1 13 9 18 26 16 134 252 151 333 2 8 4 15 5 15 2 0 11 45 14
76 1 14 5 30 8 35 11 22 13 141 13 889 l-1 790 -27 95 c-15 52 -28 100 -30
105 -6 19 -51 110 -56 115 -4 3 -12 17 -20 32 -8 15 -23 37 -33 48 -10 11 -17
20 -14 20 3 0 -7 13 -22 29 -15 15 -35 37 -44 47 -47 52 -184 154 -207 154 -6
0 -11 5 -11 10 0 6 -3 9 -7 8 -5 -1 -30 8 -56 20 -44 20 -124 46 -176 57 -11
3 -31 7 -43 10 -54 13 -98 17 -175 20 -46 1 -84 1 -85 0z"/>
<path d="M1224 4726 c-19 -8 -38 -29 -49 -52 -20 -40 -22 -48 -30 -99 -3 -16
-5 -592 -5 -1280 0 -1503 1 -1548 8 -1559 3 -5 7 -21 8 -35 5 -41 10 -60 17
-67 4 -4 7 -13 7 -21 0 -21 78 -175 105 -208 14 -16 25 -34 25 -38 0 -5 25
-33 55 -63 30 -31 55 -53 55 -49 0 3 10 -3 22 -15 12 -11 28 -20 35 -20 7 0
13 -5 13 -11 0 -5 4 -8 9 -5 5 4 11 3 13 -1 3 -7 94 -55 108 -58 14 -2 106
-51 112 -60 4 -5 8 -6 8 -1 0 5 9 1 20 -9 11 -10 20 -15 20 -12 0 3 47 -18
105 -48 58 -30 106 -54 108 -54 1 1 62 -28 136 -65 74 -36 140 -66 148 -66 7
0 13 -4 13 -9 0 -8 21 -17 44 -19 5 0 12 -5 16 -11 3 -6 17 -14 30 -16 13 -2
27 -10 32 -17 4 -7 8 -10 8 -6 0 4 29 -8 65 -28 36 -20 65 -32 65 -28 0 4 9
-1 20 -11 11 -10 20 -15 20 -11 0 4 15 -3 33 -16 17 -13 34 -23 37 -22 13 2
40 -9 40 -17 0 -5 6 -9 14 -9 7 0 34 -11 59 -24 25 -14 48 -22 51 -19 3 4 6 1
6 -6 0 -7 5 -9 10 -6 6 3 10 1 10 -4 0 -6 5 -11 10 -11 6 0 27 -7 48 -17 20
-9 41 -15 46 -14 4 1 13 -3 20 -8 13 -11 92 -8 121 4 23 10 71 45 61 45 -3 0
2 9 11 19 44 52 43 8 40 1706 -1 886 -5 1621 -9 1634 -14 45 -49 104 -84 137
-18 19 -34 31 -34 27 0 -3 -9 2 -19 11 -11 10 -28 19 -38 21 -10 2 -18 4 -18
5 0 1 -9 3 -20 4 -11 2 -39 6 -62 10 -24 4 -46 7 -49 6 -4 -1 -10 2 -13 7 -5
8 -143 61 -201 78 -32 9 -217 77 -247 91 -17 8 -35 14 -39 14 -9 0 -107 35
-204 73 -30 12 -57 22 -60 23 -3 0 -12 4 -20 7 -8 3 -67 25 -130 47 -116 41
-150 55 -182 71 -10 5 -22 9 -27 9 -5 0 -26 8 -47 17 -22 9 -43 18 -49 19 -5
1 -94 36 -196 78 -103 42 -190 76 -195 76 -5 -1 -23 -7 -40 -14z m401 -498
c32 -17 105 -91 105 -107 0 -5 3 -11 8 -13 10 -4 56 -102 62 -133 1 -3 6 -19
11 -37 11 -38 21 -94 22 -123 2 -45 -15 -160 -25 -172 -6 -7 -8 -13 -4 -13 9
0 -24 -63 -38 -72 -6 -4 -7 -8 -2 -8 5 0 -7 -13 -28 -28 -62 -46 -154 -39
-212 17 -12 11 -25 17 -28 14 -3 -4 -6 -1 -6 6 0 7 -13 29 -29 49 -16 20 -32
47 -36 60 -3 12 -10 22 -14 22 -4 0 -7 8 -8 18 -1 9 -7 31 -14 47 -16 41 -21
84 -22 190 -1 91 4 146 13 155 7 7 27 53 28 63 0 5 15 22 34 38 18 15 37 32
43 37 15 13 107 7 140 -10z m1065 -443 c19 -10 46 -30 60 -45 42 -46 65 -75
69 -85 8 -23 26 -60 31 -65 6 -6 5 -3 32 -110 32 -129 23 -271 -24 -363 -21
-42 -52 -77 -69 -77 -5 0 -8 -4 -5 -8 6 -10 -2 -11 -59 -13 -51 -1 -66 3 -101
25 -37 24 -64 52 -94 96 -13 19 -29 38 -35 42 -5 4 -6 8 -1 8 4 0 1 11 -8 25
-9 14 -14 25 -11 25 3 0 -1 12 -9 28 -8 15 -17 43 -21 62 -11 55 -13 252 -3
280 6 14 11 32 13 40 8 38 11 45 28 64 9 11 17 26 17 33 0 8 5 11 10 8 6 -3
10 -2 10 3 0 18 64 48 100 47 19 -1 51 -9 70 -20z m-1080 -1366 c8 -2 36 -25
62 -50 26 -25 50 -44 53 -41 3 3 5 -4 5 -16 0 -12 5 -22 10 -22 6 0 10 -5 10
-11 0 -6 9 -23 19 -37 10 -15 19 -31 20 -37 0 -5 6 -23 12 -40 7 -16 13 -34
14 -40 1 -5 3 -12 4 -15 10 -21 13 -61 14 -165 0 -108 -2 -125 -25 -175 -14
-30 -36 -62 -48 -70 -12 -8 -29 -21 -36 -28 -8 -7 -14 -11 -14 -8 0 2 -13 1
-28 -4 -39 -11 -118 28 -168 83 -40 44 -115 184 -115 214 0 2 -5 17 -10 35
-28 93 -13 291 28 356 49 78 96 96 193 71z m1058 -515 c19 -8 43 -23 52 -34
10 -11 22 -20 28 -20 5 0 12 -9 15 -21 4 -14 10 -18 19 -13 7 4 10 4 6 -1 -4
-4 -4 -13 1 -19 21 -27 59 -105 66 -134 3 -18 10 -32 14 -32 4 0 7 -8 7 -17 1
-10 5 -34 9 -53 9 -38 10 -203 3 -260 -6 -40 -38 -110 -50 -110 -4 0 -8 -6 -8
-13 0 -17 -58 -46 -95 -49 -36 -2 -74 10 -93 28 -7 8 -18 12 -23 8 -5 -3 -8
-2 -7 3 2 4 -9 19 -22 33 -14 14 -34 38 -45 54 -11 15 -25 34 -32 41 -7 7 -9
15 -6 19 4 3 0 6 -7 6 -7 0 -10 3 -7 7 4 3 0 17 -8 30 -9 13 -13 23 -10 23 3
0 -1 12 -9 28 -34 66 -43 253 -16 349 9 34 16 65 14 68 -2 3 -1 3 3 0 3 -3 14
9 25 25 37 61 108 83 176 54z"/>
<path d="M5703 4671 c-29 -10 -53 -16 -53 -13 0 2 -7 -2 -17 -9 -9 -8 -17 -12
-17 -10 -1 4 -80 -17 -115 -31 -14 -6 -33 -12 -41 -14 -28 -4 -55 -12 -82 -23
-16 -6 -28 -9 -28 -7 0 3 -26 -5 -57 -16 -47 -16 -294 -88 -353 -102 -8 -2
-35 -10 -60 -17 -25 -7 -49 -13 -55 -15 -5 -1 -53 -14 -105 -29 -52 -15 -104
-29 -115 -32 -40 -9 -50 -11 -50 -13 0 -2 -13 -5 -52 -14 -12 -2 -100 -26
-195 -52 -95 -25 -177 -47 -183 -49 -5 -1 -30 -7 -55 -14 -25 -7 -52 -15 -60
-17 -8 -2 -35 -8 -60 -15 -25 -6 -56 -13 -69 -15 -14 -3 -28 -7 -33 -10 -4 -3
-17 -7 -28 -10 -11 -2 -29 -6 -41 -9 -11 -2 -28 -6 -37 -9 -9 -3 -37 -8 -62
-11 -102 -15 -219 -100 -262 -193 -12 -26 -23 -50 -24 -54 -1 -5 -2 -9 -4 -10
-11 -15 -13 -248 -15 -1593 -2 -1213 1 -1559 10 -1592 7 -23 10 -44 7 -47 -3
-4 1 -6 8 -6 7 0 11 -3 7 -6 -14 -14 72 -97 121 -116 39 -15 157 -22 177 -10
6 4 15 8 20 9 6 1 17 4 25 6 8 2 33 7 55 12 22 4 46 12 53 18 6 5 12 6 12 2 0
-4 7 -2 15 5 8 7 15 10 15 6 0 -3 12 -1 28 5 15 6 34 12 43 14 9 2 39 11 65
20 27 9 56 18 64 20 8 2 37 11 64 20 27 9 61 19 74 21 14 3 33 9 44 15 10 5
18 7 18 3 0 -3 6 -2 13 4 6 6 15 11 20 11 4 1 8 1 10 2 1 0 13 2 27 5 14 2 32
7 40 11 8 3 18 7 23 8 4 2 9 4 12 5 3 1 8 3 13 4 46 12 100 28 112 33 18 8 17
7 60 17 19 5 41 12 50 17 14 8 165 53 165 50 0 -1 27 8 60 19 33 12 65 23 70
24 6 1 16 5 23 9 6 5 12 6 12 3 0 -3 18 1 40 9 22 8 44 15 48 16 4 1 12 3 17
5 109 34 217 66 227 68 14 2 84 24 108 33 8 4 17 7 20 8 3 1 13 5 23 8 9 4 25
10 35 14 9 3 20 5 25 5 4 -1 7 3 7 8 0 6 6 10 14 10 8 0 22 7 30 16 9 8 16 13
16 10 0 -7 95 86 95 93 0 3 15 21 32 40 18 19 30 38 27 42 -2 4 2 12 10 16 19
10 116 199 116 224 0 10 4 20 8 23 4 2 10 19 12 38 3 18 5 704 5 1524 0 1249
-2 1494 -14 1507 -7 10 -10 17 -5 17 4 0 -9 16 -30 35 -45 41 -88 45 -173 16z
m-210 -516 c20 -4 37 -12 37 -18 0 -6 3 -7 6 -4 8 8 84 -68 84 -84 0 -5 5 -7
12 -3 6 4 8 3 5 -3 -4 -6 1 -26 10 -44 19 -38 21 -53 23 -164 3 -124 -47 -253
-139 -359 -21 -25 -42 -42 -45 -39 -3 4 -6 -1 -6 -11 0 -9 -4 -15 -9 -11 -5 3
-13 0 -16 -5 -7 -12 -55 -34 -67 -32 -5 1 -8 -2 -8 -6 0 -4 -10 -9 -22 -10
-137 -11 -217 28 -268 133 -29 60 -33 78 -35 174 -4 152 48 283 155 391 55 55
76 69 130 86 66 21 88 22 153 9z m-1386 -404 c23 -6 45 -16 48 -21 4 -6 12 -7
18 -4 7 4 9 4 6 0 -4 -4 8 -22 27 -40 19 -18 32 -35 29 -38 -3 -3 1 -11 10
-18 8 -7 15 -19 15 -26 0 -8 4 -14 8 -14 4 0 8 -8 9 -17 1 -10 4 -31 9 -48 21
-86 4 -237 -37 -324 -12 -25 -21 -47 -20 -49 1 -1 -4 -9 -11 -16 -7 -8 -22
-26 -33 -41 -11 -15 -22 -30 -25 -34 -3 -4 -25 -23 -50 -43 -72 -58 -163 -82
-240 -64 -8 2 -30 7 -47 11 -18 4 -30 11 -27 16 3 5 0 9 -7 9 -29 0 -104 108
-115 163 -2 12 -7 33 -10 47 -14 59 2 215 27 262 5 10 7 18 3 18 -4 0 -1 8 8
18 8 9 19 28 25 42 14 33 83 128 83 115 0 -6 9 4 20 20 11 17 20 26 20 21 0
-5 8 -2 18 6 26 23 79 48 86 41 3 -4 6 -1 6 5 0 6 8 9 18 7 10 -2 24 0 31 4
15 10 41 7 98 -8z m692 -735 c6 -4 16 -4 21 -1 6 3 10 2 10 -3 0 -11 51 -37
65 -33 6 2 7 -1 3 -5 -4 -4 2 -17 15 -28 26 -26 61 -94 74 -146 7 -30 9 -185
2 -195 -4 -6 -10 -22 -12 -35 -3 -14 -8 -34 -11 -45 -4 -11 -6 -24 -6 -29 1
-5 -3 -12 -10 -16 -6 -4 -12 -16 -13 -28 0 -11 -5 -18 -9 -16 -4 3 -8 2 -8 -3
0 -4 -10 -24 -22 -43 -12 -19 -22 -38 -23 -42 0 -3 -4 -10 -9 -15 -5 -5 -6 -2
-2 7 4 8 0 6 -8 -4 -9 -11 -16 -23 -16 -28 0 -4 -6 -7 -12 -6 -7 2 -12 -3 -10
-10 1 -8 -1 -11 -6 -8 -5 3 -20 -6 -35 -20 -15 -14 -27 -22 -27 -18 0 3 -11
-1 -25 -10 -14 -9 -30 -14 -35 -11 -5 3 -11 1 -14 -4 -8 -13 -134 -5 -151 9
-8 7 -15 9 -15 6 0 -8 -18 7 -63 51 -40 39 -60 63 -52 63 3 0 -2 11 -11 25
-19 29 -24 65 -24 165 0 93 2 120 11 120 3 0 9 18 13 41 4 22 13 51 21 63 8
12 12 26 8 29 -3 4 0 7 7 7 7 0 10 3 7 7 -4 3 2 13 13 20 11 8 18 19 15 24 -4
5 -2 9 4 9 5 0 13 9 16 20 3 11 10 20 14 20 4 0 27 18 50 40 41 40 92 67 141
76 13 3 26 7 28 8 5 6 79 -1 91 -8z m716 -674 c6 -1 18 -9 28 -17 9 -8 20 -15
24 -15 9 0 31 -31 58 -81 49 -94 56 -248 16 -351 -6 -16 -8 -28 -6 -28 6 0
-33 -78 -56 -111 -10 -14 -15 -30 -11 -34 4 -5 1 -5 -5 -1 -7 4 -13 3 -13 -3
0 -6 -19 -28 -42 -50 -62 -58 -78 -72 -78 -66 0 3 -17 -3 -37 -13 -49 -24
-142 -28 -181 -8 -16 8 -31 14 -33 12 -2 -2 -23 16 -46 40 -24 24 -40 44 -37
44 4 0 -1 11 -10 25 -9 14 -14 25 -11 25 2 0 -1 12 -7 28 -17 40 -18 206 -2
259 8 25 11 49 8 54 -3 5 -1 9 4 9 6 0 13 12 17 27 3 15 15 39 26 55 11 15 18
28 15 28 -8 0 30 45 79 95 39 39 148 100 163 92 4 -3 16 -1 27 3 11 4 38 2 60
-5 22 -6 45 -12 50 -13z m-1407 -411 c1 -1 4 0 5 2 2 1 11 -4 20 -12 10 -7 17
-11 17 -7 0 3 10 -2 21 -12 94 -76 131 -172 123 -311 -6 -82 -8 -99 -23 -134
-6 -16 -11 -31 -11 -34 0 -12 -46 -99 -65 -123 -26 -32 -124 -130 -130 -130
-3 0 -20 -7 -38 -17 -41 -22 -48 -23 -127 -27 -68 -3 -108 11 -158 57 -29 27
-74 111 -80 152 -10 60 -4 201 11 251 19 64 64 157 89 184 10 11 16 20 13 20
-12 0 111 102 135 112 67 28 93 34 142 32 29 -1 54 -2 56 -3z"/>
<path d="M1130 1170 c0 -23 25 -100 32 -100 4 0 8 -6 8 -13 0 -16 79 -87 97
-87 7 0 13 -5 13 -11 0 -5 5 -7 10 -4 6 3 10 1 10 -5 0 -6 5 -8 10 -5 6 3 10
3 10 -2 0 -6 90 -54 110 -58 3 -1 49 -22 102 -48 54 -26 100 -46 102 -45 2 2
13 -5 23 -15 11 -9 23 -14 26 -10 4 3 7 1 7 -5 0 -7 3 -11 8 -10 4 1 34 -10
67 -26 33 -15 85 -39 115 -53 30 -14 93 -44 140 -67 47 -22 87 -41 90 -42 5
-1 149 -68 240 -112 30 -15 58 -26 63 -24 4 1 7 -3 7 -9 0 -5 5 -7 10 -4 6 3
10 1 10 -4 0 -6 3 -10 8 -9 7 1 77 -30 207 -93 39 -19 73 -33 78 -31 4 1 7 -3
7 -10 0 -6 3 -8 7 -5 3 4 15 -1 26 -10 10 -10 20 -16 21 -15 2 6 61 -22 68
-33 4 -5 8 -6 8 -2 0 5 12 1 28 -7 27 -15 143 -70 152 -72 3 0 25 -10 50 -22
25 -12 51 -22 58 -22 6 0 12 -4 12 -8 0 -15 91 -30 159 -27 36 1 86 10 111 19
25 10 53 18 62 18 10 -1 20 4 23 9 4 5 11 7 16 4 5 -4 9 -1 9 5 0 7 6 10 14 7
8 -3 16 -3 18 1 3 6 176 70 205 76 7 1 16 5 19 9 4 4 13 7 20 7 7 0 25 5 41
12 15 6 33 12 38 14 15 4 158 54 175 61 8 4 17 7 20 8 28 7 154 52 185 66 22
10 92 36 155 59 63 23 122 44 130 47 8 4 17 7 20 8 3 1 19 7 35 14 17 7 37 14
45 16 9 2 43 14 78 28 34 14 62 24 62 21 0 -3 9 0 21 6 11 6 28 13 37 15 9 2
44 15 77 28 75 30 99 40 105 42 3 1 13 5 22 9 9 4 22 9 30 10 7 1 23 8 36 14
12 7 22 10 22 8 0 -3 20 3 44 14 24 10 47 16 50 13 3 -4 6 -1 6 6 0 7 4 10 8
7 4 -2 21 1 37 9 31 13 63 26 80 31 17 5 88 32 120 45 17 7 35 13 41 14 5 2
39 15 75 29 35 15 72 29 83 31 10 2 24 9 32 16 8 6 14 8 14 4 0 -10 70 35 101
65 35 34 51 65 65 125 9 37 9 45 0 31 -6 -10 -21 -29 -34 -42 -13 -13 -20 -24
-16 -24 4 0 -6 -10 -22 -22 -16 -12 -31 -25 -34 -29 -18 -23 -240 -125 -254
-116 -1 1 -10 -4 -18 -11 -9 -7 -24 -15 -34 -17 -18 -4 -142 -48 -174 -62 -8
-3 -17 -7 -20 -8 -3 -1 -16 -6 -30 -12 -14 -6 -54 -20 -90 -33 -36 -12 -70
-26 -75 -31 -6 -4 -22 -10 -35 -13 -14 -2 -58 -18 -97 -35 -40 -16 -73 -28
-73 -25 0 2 -11 -3 -25 -12 -14 -9 -25 -13 -25 -9 0 4 -11 0 -25 -9 -14 -9
-25 -14 -25 -11 0 3 -13 -1 -29 -9 -16 -9 -31 -12 -35 -9 -3 4 -6 1 -6 -6 0
-7 -4 -10 -9 -6 -5 3 -12 1 -16 -5 -4 -6 -11 -8 -16 -5 -5 4 -9 2 -9 -3 0 -5
-6 -9 -12 -10 -22 -1 -113 -37 -116 -45 -2 -4 -8 -5 -12 -2 -5 3 -25 -4 -44
-15 -20 -11 -36 -17 -36 -14 0 4 -6 2 -12 -3 -7 -6 -26 -13 -43 -17 -16 -4
-43 -14 -60 -21 -23 -10 -171 -61 -230 -78 -8 -3 -119 -37 -135 -42 -3 -1 -12
-4 -20 -8 -14 -5 -88 -29 -100 -32 -3 -1 -13 -5 -22 -9 -9 -4 -22 -9 -30 -10
-7 -2 -21 -6 -30 -10 -9 -4 -22 -8 -30 -10 -7 -1 -18 -5 -24 -8 -6 -4 -21 -9
-35 -12 -13 -2 -61 -18 -106 -35 -46 -16 -83 -27 -83 -24 0 3 -6 1 -13 -5 -7
-6 -24 -13 -37 -16 -14 -2 -45 -9 -70 -14 -76 -15 -201 0 -235 28 -5 5 -12 8
-15 8 -3 1 -18 6 -35 13 -16 7 -33 12 -37 11 -5 -1 -8 2 -8 8 0 6 -3 9 -7 8
-8 -2 -36 10 -203 90 -52 25 -97 46 -100 47 -3 0 -32 14 -65 29 -73 36 -65 32
-92 41 -13 4 -23 11 -23 16 0 5 -6 9 -13 9 -7 0 -38 12 -68 27 -30 15 -56 27
-59 28 -3 1 -23 10 -45 20 -22 10 -42 19 -45 19 -3 1 -36 17 -75 36 -38 19
-72 35 -75 35 -3 1 -32 15 -65 30 -33 16 -66 30 -74 31 -8 1 -17 8 -21 14 -4
7 -10 11 -14 11 -3 0 -36 13 -73 31 -38 17 -70 32 -73 33 -3 0 -16 7 -30 15
-14 8 -27 15 -30 15 -6 1 -88 39 -220 103 -52 26 -97 47 -100 47 -14 3 -66 31
-71 38 -3 5 -8 8 -10 6 -7 -4 -139 65 -139 73 0 4 -5 8 -11 8 -7 0 -22 11 -34
24 -13 14 -26 22 -29 19 -3 -4 -6 0 -6 8 0 9 -9 25 -19 36 -11 12 -18 23 -15
26 3 2 -2 7 -11 10 -8 4 -15 2 -15 -3z"/>
</g>
</svg>
